<svg width="119" height="20" viewBox="0 0 119 20" fill="none" xmlns="http://www.w3.org/2000/svg"><path d="M9.3 14.1v-.9l-.5-.7c-.1-.2-.4-.5-.8-.7l-1.4-.7a33 33 0 0 1-2-1L3 9.2a5 5 0 0 1-1.2-1.6c-.3-.6-.5-1.3-.5-2 0-.8.2-1.6.4-2.2.3-.6.7-1.2 1.3-1.6.5-.5 1-.8 1.8-1a7.2 7.2 0 0 1 5.4.3c1 .5 1.6 1.2 2 2 .5.9.8 1.9.8 3H9.2L9 4.6a2 2 0 0 0-.7-1c-.4-.2-.8-.3-1.3-.3s-.9 0-1.2.3l-.7.7L5 5.4l.2.9.7.6.9.6 1.2.5L10 9c.6.5 1.2.9 1.6 1.4.4.5.8 1 1 1.6a6.1 6.1 0 0 1 0 4.2c-.3.6-.7 1.2-1.2 1.6-.5.5-1.2.8-1.9 1-.7.3-1.5.5-2.4.5-.8 0-1.6-.2-2.4-.4a5.2 5.2 0 0 1-3.4-3c-.3-.8-.5-1.7-.5-2.7h3.8l.1 1.4.5 1 .9.5 1.1.1c.5 0 1 0 1.2-.2.3-.2.5-.5.6-.8.2-.3.2-.7.2-1ZM23.8.5h3.7v12.7c0 1.4-.2 2.6-.7 3.5-.6.9-1.3 1.5-2.2 2-.9.4-2 .6-3.1.6-1.2 0-2.3-.2-3.2-.7-.9-.4-1.6-1-2.1-2a7 7 0 0 1-.8-3.4V.5h3.7v12.7c0 .8.1 1.4.3 1.9.2.4.4.7.8.9l1.3.2c.5 0 1 0 1.3-.2.3-.2.6-.5.8-1l.2-1.8V.5Zm12.9 12h-3.8V9.4h3.8c.5 0 1-.1 1.3-.4.3-.2.6-.5.7-1 .2-.4.2-.8.2-1.4 0-.5 0-1-.2-1.4-.2-.5-.4-.9-.7-1.2-.3-.3-.8-.4-1.3-.4H34V19h-3.7V.5h6.3c1.2 0 2.3.3 3.2.8.9.5 1.6 1.3 2 2.2.5.9.8 2 .8 3.1 0 1.2-.3 2.3-.7 3.1a5 5 0 0 1-2.1 2c-.9.5-2 .8-3.2.8Zm19 3.4V19h-8v-3h8ZM49 .5V19h-3.7V.5h3.7ZM54.7 8v3h-7V8h7Zm1-7.5v3.1h-8v-3h8Zm2.3 0h5.9c1.2 0 2.3.2 3.1.7 1 .4 1.6 1 2 1.8.5.9.7 1.9.7 3.1 0 1 0 1.9-.4 2.6-.2.7-.6 1.3-1.1 1.7-.5.5-1.1.9-1.8 1.1l-1.1.7h-4.8v-3h3.3c.5 0 1-.2 1.2-.4.4-.2.6-.5.8-1 .2-.4.2-.8.2-1.4 0-.6 0-1-.2-1.5-.1-.4-.4-.7-.7-1a2 2 0 0 0-1.2-.3h-2.2V19H58V.5ZM66.3 19 63 10.8h3.9l3.4 8v.2h-4ZM85 9.3v7.6l-1.2 1c-.5.3-1.1.7-2 1a9.3 9.3 0 0 1-5.7-.1c-.8-.4-1.5-.8-2.1-1.5-.6-.6-1-1.5-1.4-2.5-.3-1-.4-2.1-.4-3.5V8.2c0-1.4.1-2.5.4-3.5.3-1 .7-1.8 1.3-2.5.6-.7 1.3-1.1 2-1.5.9-.3 1.8-.5 2.8-.5 1.4 0 2.5.3 3.4.7 1 .5 1.6 1.2 2 2.1.5 1 .8 2 .9 3.4h-3.6c0-.8-.2-1.4-.4-1.8-.2-.5-.5-.8-.8-1-.4-.2-.8-.3-1.4-.3-.5 0-1 .1-1.3.3-.4.2-.7.4-1 .8L76 6a12 12 0 0 0-.1 2.3v3.1c0 .9 0 1.6.2 2.3.1.6.3 1 .6 1.5.2.4.6.7 1 .8.4.2.9.3 1.4.3.5 0 .8 0 1.1-.2.3 0 .5-.1.7-.3l.4-.2v-3.4h-2.7V9.3H85ZM90.3.5l2.8 8.3L96 .5h4L95 12.3V19h-3.7v-6.7L86.3.5h4Zm12.7 0h3.3l3.7 12.7L113.8.5h2.9L111.4 19h-2.8L103 .5Zm-1.3 0h3.1l.5 12.2V19h-3.6V.5Zm13.6 0h3V19h-3.5v-6.3l.5-12.2Z" fill="#fff"/></svg>